<svg width="186" height="97" viewBox="0 0 186 97" fill="none" xmlns="http://www.w3.org/2000/svg">
<g clip-path="url(#clip0)">
<path d="M11.5035 35.8809H7.84445L0.915039 5.51514H4.57406L11.5035 35.8809Z" fill="#FCFCFC"/>
<path d="M25.3144 96.4153H21.6554L8.22705 37.5645H11.8861L25.3144 96.4153Z" fill="#FCFCFC"/>
<path d="M13.7213 37.5645H16.9319L3.50357 96.4153H0L13.7213 37.5645Z" fill="#FCFCFC"/>
<path d="M24.2438 5.51514L17.3144 35.8809H14.1157L21.1946 5.51514H24.2438Z" fill="#FCFCFC"/>
<path d="M8.22688 37.5646H7.84424V35.8882L8.22688 37.5646Z" fill="#FCFCFC"/>
<path d="M14.116 35.8809L13.7214 37.5643H13.4404L14.116 35.8809Z" fill="#FCFCFC"/>
<path d="M38.1504 36.0077H34.4914L27.562 5.64893H31.221L38.1504 36.0077Z" fill="#FCFCFC"/>
<path d="M45.4684 68.0922H41.8094L39.2266 56.7728L37.5884 49.6022L34.874 37.6982H38.533L39.4418 41.6709V41.678L41.0561 48.7499V48.757L45.4684 68.0922Z" fill="#FCFCFC"/>
<path d="M50.0841 88.3078H46.4191L42.1562 69.6206H45.8153L50.0841 88.3078Z" fill="#FCFCFC"/>
<path d="M51.9617 96.5419H48.3027L46.79 89.9207L50.4072 89.7446L51.9617 96.5419Z" fill="#FCFCFC"/>
<path d="M28.2498 89.6675L31.6696 89.8929L30.151 96.5422H26.6475L28.2498 89.6675Z" fill="#FCFCFC"/>
<path d="M36.2975 69.6206L32.0346 88.3007H28.5669L32.9254 69.6206H36.2975Z" fill="#FCFCFC"/>
<path d="M43.5793 37.6982L41.0562 48.7499L39.2267 56.7728L36.6439 68.0922H33.2778L37.5885 49.6022L39.442 41.6709L40.3687 37.6982H43.5793Z" fill="#FCFCFC"/>
<path d="M43.4118 24.6392L46.5805 24.5547L43.9618 36.0079H40.7632L43.4118 24.6392Z" fill="#FCFCFC"/>
<path d="M50.8913 5.64893L46.9034 23.1105H43.7705L47.8421 5.64893H50.8913Z" fill="#FCFCFC"/>
<path d="M34.4916 36.0078H38.3419L38.6767 37.4941L34.4916 37.5434L34.1807 36.0078H34.4916Z" fill="#FCFCFC"/>
<path d="M58.8312 5.64897V23.1105H55.4771V5.51514L58.8312 5.64897Z" fill="#FCFCFC"/>
<path d="M58.8312 24.5547V35.9656L55.4771 35.9093V24.5547H58.8312Z" fill="#FCFCFC"/>
<path d="M58.8312 37.6982H55.4771V68.0922H58.8312V37.6982Z" fill="#FCFCFC"/>
<path d="M58.8312 69.6206H55.4771V88.3007H58.8312V69.6206Z" fill="#FCFCFC"/>
<path d="M55.4771 89.7939L58.8312 89.9066V96.5419H55.4771V89.7939Z" fill="#FCFCFC"/>
<path d="M58.8311 46.6512H67.578L67.6019 52.7793H69.282L69.1803 43.9111H58.8311V46.6512Z" fill="#FCFCFC"/>
<path d="M67.5482 37.2334H65.647V43.9109H67.5482V37.2334Z" fill="#FCFCFC"/>
<path d="M65.647 35.9654H67.5482L67.5901 24.4136L65.647 24.4488V35.9654Z" fill="#FCFCFC"/>
<path d="M65.8084 23.1105H67.5901V5.28271H65.647L65.8084 23.1105Z" fill="#FCFCFC"/>
<path d="M71.3511 23.1105H73.1746L73.0192 5.28271H71.3511V23.1105Z" fill="#FCFCFC"/>
<path d="M71.3511 24.4136H73.1746L73.0192 35.9654H71.3511V24.4136Z" fill="#FCFCFC"/>
<path d="M71.3511 37.2334V46.9256L73.1746 47.1158L75.0818 37.2334H73.6948L72.9773 40.8891L72.8996 37.2334H71.3511Z" fill="#FCFCFC"/>
<path d="M73.772 35.9655H75.3982L77.6582 24.3784H75.8586L73.772 35.9655Z" fill="#FCFCFC"/>
<path d="M76.373 23.1105H77.8259L80.0141 11.284V23.1105H81.7241V5.28271H79.6913L76.373 23.1105Z" fill="#FCFCFC"/>
<path d="M79.9844 24.4136H81.7242V35.9654H80.1757L79.9844 24.4136Z" fill="#FCFCFC"/>
<path d="M81.7242 37.4448H79.9844V47.1159H81.7242V37.4448Z" fill="#FCFCFC"/>
<path d="M84.0738 35.9655H85.9092L85.688 24.3784L83.8525 24.4136L84.0738 35.9655Z" fill="#FCFCFC"/>
<path d="M83.6732 23.1036H85.6522L85.8136 12.7281C85.8136 12.7281 86.2979 9.4246 87.5056 8.81884C88.7133 8.21307 90.7282 8.51594 90.7282 8.51594V23.1036H92.6234L92.4082 8.51594C92.4082 8.51594 94.9432 8.29758 95.3318 8.51594C95.9895 8.88221 97.1852 10.7066 97.239 11.4673C97.5021 15.116 97.5739 23.1036 97.5739 23.1036H99.5947L99.4751 13.3691C99.457 12.5327 99.3851 11.6992 99.2599 10.8756C99.1762 10.2558 98.5544 7.40303 97.1135 6.32533C95.565 5.15606 92.5816 5.57164 92.5816 5.57164L92.4979 0H90.776V5.57164L87.5295 5.62095C86.6696 6.12599 85.9066 6.83315 85.2875 7.69885C83.0514 10.9249 83.7151 22.2372 83.6732 23.1036Z" fill="#FCFCFC"/>
<path d="M83.8525 24.4136L85.688 24.3784L85.9092 35.9655H84.0738L83.8525 24.4136Z" fill="#FCFCFC"/>
<path d="M92.3422 24.3784H90.8296V35.9655H92.3422V24.3784Z" fill="#FCFCFC"/>
<path d="M97.7649 24.3926H99.5944C99.6363 26.9706 99.5944 29.7318 99.3971 32.6338C99.3254 33.7679 99.2357 34.8667 99.1281 35.9374H97.2388C97.4301 34.6554 97.5377 33.5988 97.5975 32.8522C97.7694 30.5924 97.8353 28.3232 97.7948 26.0549C97.7769 25.3646 97.7709 24.7941 97.7649 24.3926Z" fill="#FCFCFC"/>
<path d="M90.8296 37.2827H92.3482V46.9891V47.1299H90.8296V37.2827Z" fill="#FCFCFC"/>
<path d="M84.6475 37.2759H86.7699C86.7699 37.2759 87.5711 38.6846 87.6847 38.8537C87.7983 39.0227 88.0315 39.1777 88.7011 39.1354H94.8353C95.198 39.1364 95.5494 38.9868 95.8278 38.7128C96.25 38.3377 96.6369 37.9103 96.9817 37.4379C97.0475 37.1843 98.865 37.3604 98.865 37.3604C98.865 37.3604 98.2671 39.6144 97.5915 40.4667C97.2085 40.8634 96.7847 41.2018 96.33 41.474C96.0063 41.7578 95.6154 41.9154 95.212 41.9248H88.1391C87.976 41.9242 87.8143 41.8908 87.6608 41.8262C87.1606 41.6223 86.7 41.303 86.3058 40.887C85.9116 40.4709 85.5917 39.9665 85.3649 39.4031C85.0915 38.7107 84.8519 38.0005 84.6475 37.2759Z" fill="#FCFCFC"/>
<path d="M101.681 47.1299L103.433 47.1158V30.422V8.00866V5.28271H101.681V47.1299Z" fill="#FCFCFC"/>
<path d="M107.869 30.1684C109.663 29.8585 110.757 26.7945 111.02 25.2378C111.068 24.9842 111.187 24.6954 111.068 24.4771H109.202C108.856 25.4974 108.347 26.4299 107.702 27.2241C107.232 27.5531 106.685 27.6963 106.141 27.6327H103.319L103.409 30.4502L107.869 30.1684Z" fill="#FCFCFC"/>
<path d="M103.433 8.00899L106.99 8.26258C107.437 8.29262 107.863 8.49311 108.203 8.83373C108.544 9.17434 108.782 9.63652 108.88 10.1503C108.987 10.742 109.023 11.5591 109.137 12.7917C109.298 16.2291 109.274 19.5467 109.436 22.9911L111.229 23.1038C111.229 19.3988 111.385 15.1584 111.122 11.552C111.137 10.6082 110.968 9.67287 110.628 8.81806C110.288 7.96324 109.786 7.21174 109.161 6.62136C107.535 5.14217 105.884 5.05061 103.409 5.24784L103.433 8.00899Z" fill="#FCFCFC"/>
<path d="M128.203 24.3857L129.907 24.4491L129.656 35.9657H127.964L128.203 24.3857Z" fill="#FCFCFC"/>
<path d="M137.04 24.3857H135.348V35.9587H137.04V24.3857Z" fill="#FCFCFC"/>
<path d="M137.04 37.3882H135.348V47.0875H137.04V37.3882Z" fill="#FCFCFC"/>
<path d="M127.772 37.3813H129.608L129.231 43.6081C129.225 43.7001 129.207 43.7904 129.177 43.8757C128.944 44.4885 127.922 46.982 126.224 47.0806C125.91 47.1128 125.594 47.1128 125.279 47.0806V44.3406L126.367 44.2561C126.658 43.8939 126.932 43.5129 127.187 43.115C127.527 42.6008 127.772 37.3813 127.772 37.3813Z" fill="#FCFCFC"/>
<path d="M128.455 5.55762H137.046V23.1107H135.348V8.20608L130.224 8.12156L129.907 23.1107H128.263L128.455 5.55762Z" fill="#FCFCFC"/>
<path d="M113.358 24.3926L114.852 24.4348L114.9 35.9655H113.268L113.358 24.3926Z" fill="#FCFCFC"/>
<path d="M121.674 24.3857L123.474 24.4421V35.9657H121.674V24.3857Z" fill="#FCFCFC"/>
<path d="M139.347 24.3857L140.848 24.428L140.89 35.9587H139.258L139.347 24.3857Z" fill="#FCFCFC"/>
<path d="M147.897 24.3857L149.398 24.428L149.44 35.9587H147.808L147.897 24.3857Z" fill="#FCFCFC"/>
<path d="M151.754 24.6392L153.248 24.6814L153.296 36.2121H151.664L151.754 24.6392Z" fill="#FCFCFC"/>
<path d="M121.674 23.1035H123.181L123.079 11.6714C123.079 11.6362 123.079 11.601 123.079 11.5658C123.007 11.0093 122.063 5.89551 118.553 5.89551C116.347 5.89551 114.93 7.09296 114.314 8.74825C113.274 11.5658 113.274 21.9976 113.274 21.9976V23.1035H114.733C114.733 23.1035 114.81 12.7632 115.223 11.1291C115.403 10.3154 115.815 9.59922 116.39 9.10044C116.964 8.60167 117.667 8.35051 118.38 8.38901C120.054 8.38901 121.244 10.5022 121.369 12.1081C121.495 13.7141 121.674 23.1035 121.674 23.1035Z" fill="#FCFCFC"/>
<path d="M115.073 37.4731L113.447 37.5083C113.447 37.3251 113.621 40.6287 113.872 42.6714C114.027 43.848 114.534 44.9204 115.302 45.6954C116.069 46.4703 117.046 46.8967 118.057 46.8977C120.269 46.8977 121.381 45.996 122.045 44.3619C123.157 41.6007 123.079 37.3604 123.079 37.3604H121.501C121.501 37.3604 121.668 40.3328 121.214 41.9318C121.014 42.7383 120.584 43.4391 119.998 43.9164C119.411 44.3936 118.702 44.6181 117.991 44.5521C116.311 44.4887 115.265 42.0938 115.187 40.4737C115.109 38.8536 115.073 37.4731 115.073 37.4731Z" fill="#FCFCFC"/>
<path d="M139.342 24.1885L140.836 24.2307L140.878 35.7544H139.246L139.342 24.1885Z" fill="#FCFCFC"/>
<path d="M147.658 24.1812L149.458 24.2305V35.7541H147.658V24.1812Z" fill="#FCFCFC"/>
<path d="M147.652 22.8995H149.159L149.063 11.4675C149.063 11.4252 149.063 11.397 149.063 11.3548C148.997 10.8053 148.053 5.71973 144.543 5.71973C142.331 5.71973 140.914 6.91014 140.298 8.57247C139.258 11.39 139.258 21.8218 139.258 21.8218V22.9277H140.723C140.723 22.9277 141.159 12.9326 141.578 11.3195C141.996 9.70652 142.678 8.1921 144.34 8.1921C146.002 8.1921 147.21 10.3052 147.329 11.9112C147.449 13.5172 147.652 22.8995 147.652 22.8995Z" fill="#FCFCFC"/>
<path d="M141.052 37.2616L139.425 37.2969C139.425 37.1137 139.599 40.4243 139.85 42.4599C140.01 43.6341 140.518 44.7033 141.285 45.4772C142.051 46.2512 143.026 46.6796 144.035 46.6862C146.247 46.6862 147.359 45.7846 148.017 44.1434C149.129 41.3823 149.057 37.1489 149.057 37.1489H147.461C147.461 37.1489 147.628 40.1144 147.168 41.7133C146.968 42.5198 146.539 43.2207 145.952 43.6979C145.365 44.1751 144.656 44.3996 143.945 44.3336C142.271 44.2772 141.225 41.8753 141.147 40.2623C141.069 38.6493 141.052 37.2616 141.052 37.2616Z" fill="#FCFCFC"/>
<path d="M151.951 37.3882H153.296V47.1157H151.664V37.3882H151.951Z" fill="#FCFCFC"/>
<path d="M151.664 5.69145L160.543 5.55762V8.11451H153.296V22.8994H151.664V5.69145Z" fill="#FCFCFC"/>
<path d="M164.189 5.55762H162.82V23.0685H164.189V5.55762Z" fill="#FCFCFC"/>
<path d="M164.321 24.3857H162.82V35.9587H164.321V24.3857Z" fill="#FCFCFC"/>
<path d="M162.82 37.3038H164.321V40.5228L164.907 37.2192L166.294 37.3672L164.536 47.1158H163.018H162.82V37.3038Z" fill="#FCFCFC"/>
<path d="M167.155 24.3926H168.799L166.712 35.9655H164.997L167.155 24.3926Z" fill="#FCFCFC"/>
<path d="M167.603 22.8994H169.169L171.172 11.2772V22.8994H172.751V5.55762H171.172L167.603 22.8994Z" fill="#FCFCFC"/>
<path d="M171.382 24.3926H172.948L172.871 35.9655H171.382V24.3926Z" fill="#FCFCFC"/>
<path d="M172.877 37.311H171.382V47.123H172.877V37.311Z" fill="#FCFCFC"/>
<path d="M177.241 5.55762H175.872V23.0685H177.241V5.55762Z" fill="#FCFCFC"/>
<path d="M177.373 24.3857H175.872V35.9587H177.373V24.3857Z" fill="#FCFCFC"/>
<path d="M175.872 37.3038H177.373V40.5228L177.959 37.2192L179.346 37.3672L177.588 47.1158H176.069H175.872V37.3038Z" fill="#FCFCFC"/>
<path d="M180.655 22.8994H182.221L184.224 11.2772V22.8994H185.803V5.55762H184.224L180.655 22.8994Z" fill="#FCFCFC"/>
<path d="M184.434 24.3926H186L185.922 35.9655H184.434V24.3926Z" fill="#FCFCFC"/>
<path d="M185.928 37.311H184.434V47.123H185.928V37.311Z" fill="#FCFCFC"/>
<path d="M180.23 24.2798H181.868L179.782 35.8457H178.066L180.23 24.2798Z" fill="#FCFCFC"/>
<path d="M65.7666 69.4517H67.5064V88.3079H65.8802L65.7666 69.4517Z" fill="#FCFCFC"/>
<path d="M66.1552 89.5337H67.1178C67.2209 89.5337 67.3197 89.5819 67.3926 89.6678C67.4655 89.7536 67.5064 89.8701 67.5064 89.9915V93.9572C67.5064 94.0786 67.5474 94.195 67.6202 94.2809C67.6931 94.3668 67.792 94.415 67.895 94.415H70.9622C71.2608 94.4161 71.556 94.3397 71.8267 94.1912C72.0975 94.0427 72.3371 93.8257 72.5286 93.5557C73.1375 92.7955 73.6004 91.8898 73.8858 90.9002C73.9396 90.4705 73.9695 90.1958 73.9874 89.9563C73.995 89.8411 74.0392 89.7335 74.1113 89.6551C74.1834 89.5767 74.278 89.5334 74.3761 89.5337H75.4403C75.4942 89.5336 75.5475 89.5465 75.597 89.5716C75.6465 89.5967 75.6911 89.6335 75.7281 89.6797C75.7651 89.7258 75.7936 89.7805 75.812 89.8402C75.8304 89.8999 75.8381 89.9634 75.8349 90.0267L75.7332 91.7384C75.7182 92.0413 75.6596 92.3391 75.5599 92.6188C75.1575 93.7583 74.6024 94.8143 73.9157 95.7463C73.5093 96.2107 73.0457 96.6001 72.5406 96.9015C72.4311 96.9664 72.3103 97.0002 72.1878 97.0001H65.7666V89.9915C65.7666 89.8701 65.8075 89.7536 65.8804 89.6678C65.9533 89.5819 66.0522 89.5337 66.1552 89.5337Z" fill="#FCFCFC"/>
<path d="M67.4409 77.8266H71.8652C72.1474 77.8637 72.419 77.9744 72.6604 78.1506L73.2583 78.9466C73.7347 79.7636 74.0382 80.7031 74.1431 81.6866C74.191 83.8913 74.2328 88.2796 74.2328 88.2796H75.6857L75.584 80.7427C75.5498 80.3332 75.4776 79.9293 75.3688 79.5383C75.1789 78.8234 74.8568 78.167 74.4257 77.6165C73.9946 77.0659 73.4652 76.6349 72.8756 76.3544C72.2778 76.0727 67.5306 76.1009 67.5306 76.1009L67.4409 77.8266Z" fill="#FCFCFC"/>
<path d="M67.5063 74.9458H71.3208C71.5047 74.945 71.6848 74.884 71.841 74.7697C72.4191 74.3326 72.9039 73.7445 73.2579 73.051C73.6286 72.2128 73.5808 69.4517 73.5808 69.4517H75.1771C75.1771 69.4517 75.207 71.7832 75.1293 72.7411C75.0042 73.6786 74.6676 74.5592 74.1548 75.291C73.6466 75.9038 73.1862 76.3264 72.8514 76.3264C72.3611 76.3264 67.5063 76.0728 67.5063 76.0728V74.9458Z" fill="#FCFCFC"/>
<path d="M65.8564 68.1909H67.3452C67.3452 68.1909 67.381 63.8942 67.387 63.6406L67.4289 59.6045C67.4289 59.3509 67.9251 59.365 68.1463 59.3721L71.0939 59.3368C71.3977 59.3129 71.7013 59.386 71.9728 59.5484C72.2443 59.7108 72.4735 59.9565 72.6364 60.2596C73.1445 61.0452 73.4849 61.9632 73.6289 62.9362C73.6707 63.3588 73.7126 64.1407 73.7186 64.345C73.7245 64.5492 73.6109 68.0641 73.7903 68.0641H75.3687C75.3687 68.0641 75.3687 64.7324 75.3687 64.4647C75.3687 64.4647 75.5122 60.8301 74.0773 58.6888C73.771 58.154 73.3958 57.6787 72.9652 57.2801C72.6903 57.1257 72.4042 57.0007 72.1103 56.9067H65.9461L65.9043 63.387C65.8923 63.704 65.8564 68.1909 65.8564 68.1909Z" fill="#FCFCFC"/>
<path d="M78.4058 69.4517H80.2233V76.0728H87.1288V78.5945H80.4385L80.2233 88.3079H78.4058V69.4517Z" fill="#FCFCFC"/>
<path d="M78.4058 89.5337H80.1755V94.4221H88.4262V97.0001L78.4058 96.7606V89.5337Z" fill="#FCFCFC"/>
<path d="M78.4058 68.0923H80.307V59.6186L88.5577 59.4214V56.7236L78.4058 56.9772V67.6063V68.0923Z" fill="#FCFCFC"/>
<path d="M92.4381 56.7236H90.5967V68.0923H92.4381V56.7236Z" fill="#FCFCFC"/>
<path d="M90.5967 69.4517H92.4381V78.0451L95.7265 69.4517H97.5679L95.1465 76.0728L99.4572 88.0261H97.4723L93.9866 78.7424L92.4381 82.6095V88.3079H90.5967V69.4517Z" fill="#FCFCFC"/>
<path d="M92.4381 89.5337H90.5967V97.0001H92.4381V89.5337Z" fill="#FCFCFC"/>
<path d="M98.0044 89.5337H99.9894L102.847 97.0001H100.91L98.0044 89.5337Z" fill="#FCFCFC"/>
<path d="M96.2104 68.0921L98.2432 68.1908L102.267 56.9771H100.425L96.2104 68.0921Z" fill="#FCFCFC"/>
<path d="M108.222 68.0921H110.016L110.883 60.5905L112.049 68.0921L113.938 68.1908L112.336 56.9771H109.771L108.222 68.0921Z" fill="#FCFCFC"/>
<path d="M107.929 69.4517H109.675L107.397 86.0327H114.613L112.192 69.4517H113.788L116.79 88.3079H105.364L107.929 69.4517Z" fill="#FCFCFC"/>
<path d="M105.364 89.7943L106.769 89.5337L106.069 97.0001H104.252L105.364 89.7943Z" fill="#FCFCFC"/>
<path d="M114.84 89.5337H116.789L117.937 97.0001H115.845L114.84 89.5337Z" fill="#FCFCFC"/>
</g>
<defs>
<clipPath id="clip0">
<rect width="186" height="97" fill="white"/>
</clipPath>
</defs>
</svg>
